<?xml version="1.0" encoding="UTF-8" standalone="no"?>
<!DOCTYPE svg PUBLIC "-//W3C//DTD SVG 1.1//EN" "http://www.w3.org/Graphics/SVG/1.1/DTD/svg11.dtd">
<svg width="100%" height="100%" viewBox="0 0 112 37" version="1.1" xmlns="http://www.w3.org/2000/svg" xmlns:xlink="http://www.w3.org/1999/xlink" xml:space="preserve" xmlns:serif="http://www.serif.com/" style="fill-rule:evenodd;clip-rule:evenodd;stroke-linejoin:round;stroke-miterlimit:2;">
    <g id="transit-api-badge">
        <g id="_1.Elements-__transit-logos-app-icon-iOS-white" serif:id="1.Elements/__transit-logos/app-icon/iOS/white" transform="matrix(1,0,0,1,7.25,7.25)">
            <path id="Combined-Shape" d="M15.372,0C17.85,0 18.749,0.258 19.655,0.743C20.562,1.227 21.273,1.938 21.757,2.845C22.242,3.751 22.5,4.65 22.5,7.128L22.5,15.372C22.5,17.85 22.242,18.749 21.757,19.655C21.273,20.562 20.562,21.273 19.655,21.757C18.749,22.242 17.85,22.5 15.372,22.5L7.128,22.5C4.65,22.5 3.751,22.242 2.845,21.757C1.938,21.273 1.227,20.562 0.743,19.655C0.258,18.749 0,17.85 0,15.372L0,7.128C0,4.65 0.258,3.751 0.743,2.845C1.227,1.938 1.938,1.227 2.845,0.743C3.751,0.258 4.65,0 7.128,0L15.372,0ZM14.078,4.39C11.84,4.39 10.026,6.204 10.026,8.442L10.01,11.631C10.005,12.728 10,13.746 9.999,13.998L9.998,14.058C9.998,14.912 9.306,15.605 8.452,15.605C7.597,15.605 6.905,14.912 6.905,14.058L6.902,12.726C6.902,12.69 6.866,12.666 6.831,12.684C6.477,12.872 6.074,12.978 5.647,12.978C5.219,12.978 4.816,12.872 4.462,12.685C4.432,12.668 4.397,12.69 4.397,12.727L4.399,14.059C4.4,16.297 6.214,18.11 8.452,18.11C10.689,18.11 12.504,16.296 12.504,14.058L12.504,13.998C12.507,13.454 12.526,9.362 12.53,8.573L12.531,8.442C12.531,7.588 13.223,6.895 14.078,6.895C14.932,6.895 15.624,7.588 15.624,8.444L15.627,9.774C15.627,9.81 15.663,9.834 15.698,9.816C16.052,9.628 16.455,9.522 16.883,9.522C17.31,9.522 17.713,9.628 18.067,9.815C18.097,9.832 18.132,9.81 18.132,9.773L18.13,8.441C18.129,6.203 16.315,4.39 14.078,4.39ZM18.068,14.297L18.044,14.302C17.689,14.491 17.284,14.595 16.854,14.595C16.429,14.595 16.029,14.488 15.677,14.303C15.644,14.285 15.607,14.309 15.608,14.341L15.608,14.527L15.609,15.06L15.61,15.409C15.61,15.722 15.611,16.092 15.612,16.518C15.613,17.21 16.175,17.77 16.867,17.768C17.559,17.767 18.119,17.205 18.117,16.513C18.116,16.003 18.115,15.574 18.115,15.226L18.114,14.766L18.113,14.342C18.113,14.305 18.074,14.286 18.044,14.302L18.068,14.297ZM16.86,10.368C15.929,10.368 15.171,11.125 15.171,12.056C15.171,12.987 15.929,13.744 16.86,13.744C17.791,13.744 18.548,12.987 18.548,12.056C18.548,11.125 17.791,10.368 16.86,10.368ZM5.64,8.755C4.709,8.755 3.952,9.513 3.952,10.444C3.952,11.375 4.709,12.132 5.64,12.132C6.571,12.132 7.329,11.375 7.329,10.444C7.329,9.513 6.571,8.755 5.64,8.755ZM5.64,4.729C4.948,4.731 4.388,5.292 4.389,5.984L4.391,6.689L4.392,7.271L4.393,7.732L4.394,8.156C4.394,8.192 4.433,8.211 4.463,8.195C4.818,8.006 5.223,7.902 5.653,7.902C6.078,7.902 6.478,8.01 6.83,8.195C6.863,8.212 6.899,8.189 6.899,8.156L6.899,7.971L6.898,7.437L6.897,7.089C6.896,6.775 6.896,6.406 6.895,5.979C6.893,5.287 6.331,4.728 5.64,4.729Z"/>
        </g>
        <g id="Powered-by-Transit" transform="matrix(1,0,0,1,38.198,7.548)">
            <path id="Shape" d="M0.096,0.24L0.096,8.76L1.5,8.76L1.5,5.808L2.808,5.808C4.56,5.808 5.76,4.596 5.76,3.024C5.76,1.452 4.56,0.24 2.808,0.24L0.096,0.24ZM1.5,4.488L1.5,1.56L2.796,1.56C3.792,1.56 4.38,2.196 4.38,3.024C4.38,3.852 3.792,4.488 2.796,4.488L1.5,4.488Z" style="fill-rule:nonzero;"/>
            <path id="Shape1" serif:id="Shape" d="M12.636,5.76C12.636,4.02 11.268,2.64 9.492,2.64C7.716,2.64 6.348,4.02 6.348,5.76C6.348,7.5 7.716,8.88 9.492,8.88C11.268,8.88 12.636,7.5 12.636,5.76ZM7.68,5.76C7.68,4.692 8.424,3.864 9.492,3.864C10.548,3.864 11.292,4.692 11.292,5.76C11.292,6.828 10.548,7.656 9.492,7.656C8.424,7.656 7.68,6.828 7.68,5.76Z" style="fill-rule:nonzero;"/>
            <path id="Path" d="M16.404,8.76L17.712,4.872L19.032,8.76L20.28,8.76L22.296,2.76L20.892,2.76L19.584,6.888L18.216,2.76L17.208,2.76L15.828,6.888L14.532,2.76L13.14,2.76L15.156,8.76L16.404,8.76Z" style="fill-rule:nonzero;"/>
            <path id="Shape2" serif:id="Shape" d="M22.812,5.76C22.812,7.584 24.12,8.88 25.944,8.88C27.204,8.88 28.14,8.34 28.68,7.488L27.672,6.768C27.36,7.296 26.796,7.68 25.956,7.68C24.96,7.68 24.168,7.032 24.108,6.048L28.824,6.048C28.836,5.856 28.836,5.748 28.836,5.616C28.836,3.684 27.516,2.64 25.944,2.64C24.12,2.64 22.812,3.996 22.812,5.76ZM25.896,3.756C26.664,3.756 27.36,4.224 27.504,5.088L24.168,5.088C24.348,4.2 25.128,3.756 25.896,3.756Z" style="fill-rule:nonzero;"/>
            <path id="Path1" serif:id="Path" d="M31.512,2.76L30.192,2.76L30.192,8.76L31.512,8.76L31.512,4.908C31.776,4.284 32.4,3.984 32.928,3.984C33.132,3.984 33.324,4.008 33.444,4.056L33.636,2.772C33.492,2.736 33.276,2.7 33.024,2.7C32.352,2.7 31.74,3.108 31.512,3.564L31.512,2.76Z" style="fill-rule:nonzero;"/>
            <path id="Shape3" serif:id="Shape" d="M34.02,5.76C34.02,7.584 35.328,8.88 37.152,8.88C38.412,8.88 39.348,8.34 39.888,7.488L38.88,6.768C38.568,7.296 38.004,7.68 37.164,7.68C36.168,7.68 35.376,7.032 35.316,6.048L40.032,6.048C40.044,5.856 40.044,5.748 40.044,5.616C40.044,3.684 38.724,2.64 37.152,2.64C35.328,2.64 34.02,3.996 34.02,5.76ZM37.104,3.756C37.872,3.756 38.568,4.224 38.712,5.088L35.376,5.088C35.556,4.2 36.336,3.756 37.104,3.756Z" style="fill-rule:nonzero;"/>
            <path id="Shape4" serif:id="Shape" d="M40.968,5.76C40.968,7.452 42.18,8.88 43.968,8.88C44.676,8.88 45.3,8.64 45.72,8.196L45.72,8.76L47.04,8.76L47.04,0L45.72,0L45.72,3.312C45.3,2.88 44.676,2.64 43.968,2.64C42.18,2.64 40.968,4.068 40.968,5.76ZM45.72,6.84C45.408,7.32 44.892,7.68 44.112,7.68C43.056,7.68 42.336,6.816 42.336,5.76C42.336,4.704 43.056,3.84 44.112,3.84C44.892,3.84 45.408,4.2 45.72,4.668L45.72,6.84Z" style="fill-rule:nonzero;"/>
            <path id="Shape5" serif:id="Shape" d="M57.708,5.76C57.708,4.068 56.496,2.64 54.708,2.64C54,2.64 53.376,2.88 52.956,3.312L52.956,0L51.636,0L51.636,8.76L52.956,8.76L52.956,8.196C53.376,8.64 54,8.88 54.708,8.88C56.496,8.88 57.708,7.452 57.708,5.76ZM52.956,4.668C53.268,4.2 53.784,3.84 54.564,3.84C55.62,3.84 56.352,4.704 56.352,5.76C56.352,6.816 55.62,7.68 54.564,7.68C53.784,7.68 53.268,7.32 52.956,6.84L52.956,4.668Z" style="fill-rule:nonzero;"/>
            <path id="Path2" serif:id="Path" d="M60.672,8.436L59.472,11.088L60.924,11.088L64.692,2.76L63.228,2.76L61.392,7.008L59.544,2.76L58.092,2.76L60.672,8.436Z" style="fill-rule:nonzero;"/>
            <path id="Path3" serif:id="Path" d="M0,15.064L2.172,15.064L0.744,21.76L2.664,21.76L4.092,15.064L6.288,15.064L6.672,13.24L0.384,13.24L0,15.064Z" style="fill-rule:nonzero;"/>
            <path id="Path4" serif:id="Path" d="M8.124,15.76L6.312,15.76L5.04,21.76L6.852,21.76L7.656,17.968C8.04,17.56 8.64,17.428 9,17.428C9.276,17.428 9.456,17.5 9.528,17.536L10.176,15.808C10.068,15.76 9.804,15.688 9.48,15.688C8.88,15.688 8.268,16.012 7.98,16.432L8.124,15.76Z" style="fill-rule:nonzero;"/>
            <path id="Shape6" serif:id="Shape" d="M12.264,21.892C12.876,21.892 13.44,21.652 13.704,21.376L13.62,21.76L15.432,21.76L16.704,15.76L14.892,15.76L14.796,16.228C14.544,15.928 13.932,15.628 13.248,15.628C11.34,15.628 9.912,17.116 9.912,19.204C9.912,20.644 10.776,21.892 12.264,21.892ZM12.852,20.296C12.12,20.296 11.724,19.792 11.724,19.024C11.724,17.98 12.54,17.272 13.416,17.272C13.932,17.272 14.292,17.536 14.46,17.836L14.076,19.624C13.872,19.876 13.476,20.296 12.852,20.296Z" style="fill-rule:nonzero;"/>
            <path id="Path5" serif:id="Path" d="M20.004,15.76L18.192,15.76L16.92,21.76L18.732,21.76L19.572,17.824C19.908,17.452 20.376,17.272 20.76,17.272C21.588,17.272 21.732,17.884 21.588,18.58L20.916,21.76L22.728,21.76L23.436,18.436C23.724,17.068 23.016,15.628 21.504,15.628C20.82,15.628 20.328,15.82 19.92,16.192L20.004,15.76Z" style="fill-rule:nonzero;"/>
            <path id="Path6" serif:id="Path" d="M26.496,21.904C27.768,21.904 28.968,21.232 28.968,19.768C28.968,18.928 28.428,18.376 27.54,18.064L27.036,17.884C26.688,17.764 26.616,17.608 26.616,17.476C26.616,17.236 26.844,17.128 27.108,17.128C27.396,17.128 27.768,17.26 28.02,17.692L29.328,16.852C28.932,16.06 28.068,15.628 27.156,15.628C25.824,15.628 24.792,16.336 24.792,17.656C24.792,18.424 25.26,19.084 26.136,19.396L26.508,19.528C26.988,19.696 27.156,19.804 27.156,20.02C27.156,20.224 26.952,20.344 26.628,20.344C26.208,20.344 25.62,20.104 25.368,19.6L23.976,20.584C24.456,21.496 25.512,21.904 26.496,21.904Z" style="fill-rule:nonzero;"/>
            <path id="Shape7" serif:id="Shape" d="M32.112,14.896C32.7,14.896 33.252,14.38 33.348,13.768C33.444,13.144 33,12.64 32.412,12.64C31.8,12.64 31.272,13.168 31.176,13.768C31.116,14.38 31.488,14.896 32.112,14.896ZM29.736,21.748L31.548,21.748L32.82,15.748L31.008,15.748L29.736,21.748Z" style="fill-rule:nonzero;"/>
            <path id="Path7" serif:id="Path" d="M36.48,21.832C37.14,21.832 37.656,21.7 37.968,21.544L37.74,19.996C37.536,20.104 37.26,20.188 36.984,20.188C36.396,20.188 36.048,19.96 36.204,19.204L36.6,17.332L38.4,17.332L38.736,15.76L36.936,15.76L37.32,13.936L35.508,13.936L35.124,15.76L33.684,15.76L33.348,17.332L34.788,17.332L34.416,19.096C34.056,20.824 34.992,21.832 36.48,21.832Z" style="fill-rule:nonzero;"/>
        </g>
    </g>
</svg>
