<?xml version="1.0" encoding="UTF-8" standalone="no"?><!DOCTYPE svg PUBLIC "-//W3C//DTD SVG 1.1//EN" "http://www.w3.org/Graphics/SVG/1.1/DTD/svg11.dtd"><svg width="100%" height="100%" viewBox="0 0 301 90" version="1.1" xmlns="http://www.w3.org/2000/svg" xmlns:xlink="http://www.w3.org/1999/xlink" xml:space="preserve" xmlns:serif="http://www.serif.com/" style="fill-rule:evenodd;clip-rule:evenodd;stroke-linejoin:round;stroke-miterlimit:2;"><rect id="Artboard2" x="0" y="0" width="300.05" height="90" style="fill:none;"/><g><g><path d="M124.343,20.025c-6.09,0.505 -11.385,2.726 -14.916,6.247c-2.842,2.835 -4.391,6.116 -4.706,9.986c-0.099,1.177 -0.099,1.293 0.033,2.527c0.406,3.829 2.469,6.646 6.944,9.455c0.456,0.29 2.296,1.251 4.069,2.146c4.574,2.287 5.212,2.694 5.593,3.58c0.29,0.671 0.141,1.5 -0.348,1.939c-0.638,0.589 -1.582,0.779 -3.82,0.779c-2.428,-0 -4.433,-0.265 -6.977,-0.92c-0.729,-0.182 -1.409,-0.356 -1.508,-0.381c-0.141,-0.033 -0.174,-0.008 -0.141,0.108c0.016,0.091 0.315,1.309 0.654,2.726c1.21,5.022 1.973,8.146 2.395,9.861l0.423,1.74l1.077,0.091c1.26,0.108 5.527,0.124 6.671,0.025c1.475,-0.124 1.864,-0.166 2.95,-0.323c5.403,-0.787 9.388,-2.652 12.388,-5.784c1.077,-1.127 1.823,-2.163 2.519,-3.513c1.326,-2.569 1.89,-5.064 1.898,-8.395c0.008,-2.419 -0.183,-3.347 -0.995,-4.93c-1.458,-2.834 -4.4,-4.922 -10.929,-7.748c-2.528,-1.094 -3.986,-1.815 -4.542,-2.237c-0.861,-0.655 -0.953,-1.724 -0.223,-2.552c1.201,-1.376 5.925,-1.591 10.159,-0.473c0.505,0.133 0.978,0.265 1.044,0.29c0.141,0.058 0.174,-0.099 0.439,-1.823c0.133,-0.878 0.439,-2.801 0.713,-4.516c0.091,-0.572 0.24,-1.492 0.323,-2.055c0.091,-0.555 0.24,-1.467 0.331,-2.03c0.307,-1.915 0.415,-2.727 0.374,-2.793c-0.025,-0.033 -0.141,-0.083 -0.266,-0.099c-0.132,-0.025 -0.572,-0.124 -0.994,-0.224c-0.895,-0.199 -2.038,-0.381 -3.547,-0.555c-1.011,-0.116 -6.173,-0.224 -7.085,-0.149Z" style="fill:#fff;fill-rule:nonzero;"/><path d="M27.648,21.4c-0.041,0.24 -0.198,1.185 -0.339,2.097c-0.282,1.815 -0.489,3.132 -0.746,4.74c-0.1,0.588 -0.224,1.417 -0.298,1.848c-0.067,0.43 -0.191,1.234 -0.282,1.781c-0.091,0.547 -0.216,1.351 -0.282,1.782c-0.182,1.168 -0.431,2.742 -0.713,4.516c-0.256,1.616 -0.447,2.834 -0.745,4.723c-0.232,1.483 -0.39,2.478 -0.58,3.646c-0.266,1.674 -0.398,2.511 -0.622,3.936c-0.116,0.754 -0.29,1.823 -0.373,2.378c-0.431,2.652 -0.488,3.033 -1.003,6.282c-0.347,2.237 -0.497,3.182 -0.654,4.159c-0.091,0.564 -0.24,1.475 -0.331,2.031c-0.091,0.563 -0.257,1.649 -0.373,2.428c-0.116,0.77 -0.233,1.516 -0.257,1.64l-0.05,0.232l11.096,-0.033c11.559,-0.033 11.385,-0.025 13.821,-0.381c5.859,-0.862 10.872,-2.933 14.957,-6.198c2.105,-1.674 4.243,-4.127 5.627,-6.464c2.154,-3.638 3.364,-7.333 4.168,-12.744c0.174,-1.185 0.149,-5.395 -0.041,-6.505c-0.241,-1.409 -0.456,-2.296 -0.812,-3.348c-2.437,-7.184 -8.842,-11.667 -18.181,-12.72c-1.881,-0.215 -3.986,-0.257 -13.192,-0.257l-9.712,0l-0.083,0.431Zm19.88,15.098c3.521,0.787 5.311,2.959 5.328,6.472c0.008,0.588 -0.017,1.26 -0.05,1.492c-0.166,1.101 -0.24,1.466 -0.422,2.212c-0.514,2.005 -1.318,3.546 -2.511,4.798c-1.425,1.483 -2.983,2.279 -5.287,2.684c-0.887,0.158 -5.676,0.282 -5.676,0.15c-0,-0.042 0.058,-0.431 0.124,-0.862c0.224,-1.359 0.522,-3.224 0.87,-5.419c0.298,-1.89 0.489,-3.108 0.746,-4.723c0.141,-0.871 0.331,-2.064 0.423,-2.652c0.091,-0.597 0.198,-1.268 0.24,-1.492c0.041,-0.232 0.157,-0.969 0.257,-1.649l0.182,-1.226l2.577,0.041c1.989,0.033 2.718,0.075 3.199,0.174Z" style="fill:#fff;fill-rule:nonzero;"/><path d="M77.085,29.098l-4.541,8.137l0.083,0.713c0.133,1.028 0.108,4.492 -0.024,5.726c-0.514,4.549 -1.699,8.718 -3.489,12.322c-3.033,6.107 -7.847,10.607 -14.46,13.515c-0.149,0.067 2.03,0.092 8.245,0.092l8.452,0.008l0.763,-1.475c0.422,-0.804 0.994,-1.898 1.276,-2.42c0.273,-0.522 0.754,-1.442 1.069,-2.03c0.315,-0.596 0.737,-1.392 0.944,-1.781l0.373,-0.705l14.543,0l0.182,0.87c0.092,0.481 0.249,1.243 0.348,1.699c0.1,0.456 0.257,1.202 0.348,1.657c0.1,0.456 0.307,1.442 0.465,2.196c0.165,0.754 0.314,1.508 0.339,1.674l0.05,0.315l8.436,0c6.148,0 8.443,-0.025 8.443,-0.091c0,-0.1 -0.049,-0.323 -0.953,-4.011c-0.331,-1.367 -0.911,-3.754 -1.284,-5.303c-0.373,-1.55 -0.953,-3.936 -1.284,-5.304c-0.332,-1.367 -0.887,-3.679 -1.243,-5.137c-0.348,-1.459 -0.912,-3.771 -1.243,-5.138c-0.572,-2.345 -1.152,-4.748 -2.577,-10.648c-1.169,-4.806 -1.964,-8.088 -2.553,-10.524l-0.596,-2.444l-7.781,-0.017l-7.789,-0.025l-4.542,8.129Zm10.21,12.024c0.29,1.749 0.696,4.234 0.911,5.519c0.265,1.566 0.365,2.361 0.307,2.386c-0.05,0.017 -1.683,0.025 -3.63,0.017l-3.546,-0.025l0.463,-0.953c0.258,-0.522 0.647,-1.326 0.862,-1.782c0.216,-0.455 0.945,-1.963 1.616,-3.356c0.663,-1.392 1.475,-3.074 1.798,-3.753c0.324,-0.671 0.613,-1.218 0.647,-1.218c0.025,-0 0.29,1.425 0.572,3.165Z" style="fill:#fff;fill-rule:nonzero;"/><path d="M139.193,21.566c-0.125,0.787 -0.481,2.983 -0.68,4.292c-0.373,2.337 -0.505,3.174 -0.704,4.434c-0.116,0.729 -0.265,1.682 -0.34,2.113c-0.066,0.431 -0.157,1.01 -0.199,1.284c-0.05,0.273 -0.24,1.467 -0.422,2.652c-0.183,1.185 -0.406,2.585 -0.489,3.107c-0.083,0.522 -0.141,0.953 -0.133,0.953c0,0 0.439,0.323 0.961,0.721c2.511,1.881 4.235,4.325 4.922,7.002c0.581,2.221 0.49,6.082 -0.215,9.057c-0.456,1.973 -1.334,4.118 -2.329,5.709c-1.549,2.495 -3.977,4.823 -6.687,6.406l-0.538,0.315l15.694,0l0.083,-0.439c0.041,-0.232 0.158,-0.912 0.249,-1.509c0.091,-0.596 0.265,-1.673 0.381,-2.403c0.116,-0.729 0.282,-1.789 0.373,-2.361c0.091,-0.572 0.257,-1.632 0.373,-2.362c0.24,-1.508 0.397,-2.477 0.572,-3.605c0.066,-0.43 0.199,-1.276 0.298,-1.864c0.091,-0.596 0.215,-1.392 0.273,-1.781l0.108,-0.705l6.687,-0.024c6.331,-0.017 6.688,-0.009 6.688,0.124c-0,0.083 -0.092,0.729 -0.208,1.433c-0.116,0.704 -0.265,1.616 -0.331,2.03c-0.067,0.406 -0.191,1.218 -0.29,1.799c-0.091,0.588 -0.24,1.532 -0.332,2.113c-0.091,0.588 -0.24,1.541 -0.339,2.138c-0.357,2.262 -0.498,3.182 -0.655,4.143c-0.141,0.895 -0.307,1.956 -0.456,2.917l-0.058,0.356l16.474,0l0.107,-0.688c0.058,-0.373 0.133,-0.87 0.174,-1.094c0.042,-0.232 0.174,-1.052 0.29,-1.823c0.266,-1.674 0.688,-4.367 1.078,-6.795c0.066,-0.414 0.273,-1.715 0.464,-2.9c0.182,-1.185 0.406,-2.602 0.497,-3.149c0.083,-0.547 0.199,-1.235 0.24,-1.533c0.042,-0.298 0.158,-1.002 0.249,-1.574c0.091,-0.572 0.257,-1.633 0.373,-2.362c0.116,-0.729 0.281,-1.79 0.373,-2.362c0.315,-1.98 0.513,-3.19 0.58,-3.645c0.107,-0.713 0.654,-4.16 0.828,-5.287c0.348,-2.138 0.506,-3.116 0.663,-4.144c0.323,-2.063 0.497,-3.14 0.746,-4.698c0.274,-1.732 0.29,-1.856 0.705,-4.45c0.157,-0.986 0.289,-1.872 0.289,-1.964l0,-0.174l-16.407,0l-0.041,0.183c-0.017,0.107 -0.116,0.662 -0.208,1.243c-0.091,0.588 -0.24,1.524 -0.331,2.096c-0.091,0.572 -0.24,1.508 -0.331,2.088c-0.092,0.589 -0.241,1.541 -0.34,2.138c-0.348,2.229 -0.497,3.182 -0.655,4.144c-0.306,1.905 -0.397,2.494 -0.547,3.455l-0.149,0.978l-6.695,-0c-3.679,-0 -6.696,-0.034 -6.696,-0.066c0,-0.042 0.033,-0.274 0.083,-0.523c0.042,-0.248 0.158,-0.911 0.24,-1.483c0.332,-2.047 0.423,-2.627 0.589,-3.687c0.505,-3.207 0.812,-5.154 0.994,-6.298c0.091,-0.547 0.224,-1.384 0.29,-1.865c0.075,-0.48 0.191,-1.185 0.257,-1.574c0.066,-0.39 0.116,-0.729 0.116,-0.771c0,-0.033 -3.704,-0.058 -8.229,-0.058l-8.228,0l-0.099,0.597Z" style="fill:#fff;fill-rule:nonzero;"/></g></g><text x="179.064px" y="69.532px" style="font-family:'Arial-BoldItalicMT', 'Arial', sans-serif;font-weight:700;font-style:italic;font-size:36px;fill:#fff;">board</text></svg>